<!DOCTYPE svg PUBLIC "-//W3C//DTD SVG 1.1//EN" "http://www.w3.org/Graphics/SVG/1.1/DTD/svg11.dtd">
<!-- Uploaded to: SVG Repo, www.svgrepo.com, Transformed by: SVG Repo Mixer Tools -->
<svg fill="#137137" height="800px" width="800px" version="1.1" id="Layer_1" xmlns="http://www.w3.org/2000/svg" xmlns:xlink="http://www.w3.org/1999/xlink" viewBox="0 0 512 512" xml:space="preserve" stroke="#137137">
<g id="SVGRepo_bgCarrier" stroke-width="0"/>
<g id="SVGRepo_tracerCarrier" stroke-linecap="round" stroke-linejoin="round"/>
<g id="SVGRepo_iconCarrier"> <g> <g> <path d="M256,0C114.842,0,0,114.842,0,256s114.842,256,256,256s256-114.842,256-256S397.158,0,256,0z M306.087,72.348 c9.22,0,16.696,7.475,16.696,16.696c0,9.22-7.475,16.696-16.696,16.696s-16.696-7.475-16.696-16.696 C289.391,79.823,296.867,72.348,306.087,72.348z M239.304,55.652c9.22,0,16.696,7.475,16.696,16.696 c0,13.379,5.21,25.956,14.67,35.417c9.461,9.46,22.038,14.67,35.417,14.67c13.379,0,25.956-5.21,35.417-14.671 c6.52-6.519,17.092-6.519,23.611,0c6.52,6.52,6.52,17.091,0,23.611c-15.767,15.768-36.73,24.451-59.028,24.451 c-22.297,0-43.261-8.683-59.028-24.45c-15.767-15.767-24.45-36.73-24.45-59.028C222.609,63.127,230.084,55.652,239.304,55.652z M372.87,389.565c-36.824,0-66.783-29.959-66.783-66.783c0-9.22,7.475-16.696,16.696-16.696s16.696,7.475,16.696,16.696 c0,18.412,14.979,33.391,33.391,33.391c18.412,0,33.391-14.979,33.391-33.391V222.609c0-18.412-14.979-33.391-33.391-33.391 c-18.412,0-33.391,14.979-33.391,33.391c0,18.412-14.979,33.391-33.391,33.391h-50.133c-4.755,6.32-10.384,11.946-16.708,16.696 c20.295,15.243,33.449,39.504,33.449,66.783c0,46.03-37.448,83.478-83.478,83.478s-83.478-37.448-83.478-83.478 c0-9.22,7.475-16.696,16.696-16.696c9.22,0,16.696,7.475,16.696,16.696c0,27.618,22.469,50.087,50.087,50.087 c27.618,0,50.087-22.469,50.087-50.087s-22.469-50.087-50.087-50.087c-9.22,0-16.696-7.475-16.696-16.696 c0-9.22,7.475-16.696,16.696-16.696c27.618,0,50.087-22.469,50.087-50.087c0-27.618-22.469-50.087-50.087-50.087 c-27.618,0-50.087,22.469-50.087,50.087c0,9.22-7.475,16.696-16.696,16.696c-9.22,0-16.696-7.475-16.696-16.696 c0-46.03,37.448-83.478,83.478-83.478s83.478,37.448,83.478,83.478c0,5.717-0.58,11.3-1.68,16.696h35.071 c0-36.824,29.959-66.783,66.783-66.783s66.783,29.959,66.783,66.783v100.174C439.652,359.607,409.693,389.565,372.87,389.565z"/> </g> </g> </g>
</svg>